<svg xmlns="http://www.w3.org/2000/svg" viewBox="0 0 76.49879 44.03629"><defs><style>.a{fill:#fff;}.b{opacity:0.1;}.c{fill:none;}</style></defs><title>tubi_brand-wordmark-normal</title><path class="a" d="M60.169,9.64361a1.79084,1.79084,0,1,0,1.79084,1.79084A1.79084,1.79084,0,0,0,60.169,9.64361Zm1.36231,5.37265h-3.153V29.0896a.446.446,0,0,0,.44456.45223h2.70841a.43277.43277,0,0,0,.42839-.45223V15.4685A.43277.43277,0,0,0,61.53128,15.01627ZM25.63811,28.16913l.0004.0004-1.35919-2.36009-.00082.00044a.451.451,0,0,0-.572-.18814,3.59318,3.59318,0,0,1-1.4472.30223,3.67184,3.67184,0,0,1-3.67773-3.61786v-3.0573a.45182.45182,0,0,1,.4514-.45225h4.66869c.24928,0,.4514-.31077.4514-.56054V15.46981a.45184.45184,0,0,0-.4514-.4523H19.03222a.45181.45181,0,0,1-.4514-.45223v-4.4695a.45181.45181,0,0,0-.4514-.45217H15V22.37848a7.25354,7.25354,0,0,0,10.44664,6.42246.45262.45262,0,0,0,.20549-.60552Zm23.70532,1.37271a7.264,7.264,0,1,0-2.97365-13.83127l-.00009-.00013a.45073.45073,0,0,1-.18607.04021.53787.53787,0,0,1-.54183-.45223V10.09584a.45183.45183,0,0,0-.4514-.45223h-3.1288V22.30612A7.28,7.28,0,0,0,49.34343,29.54184Zm-.019-10.944A3.68117,3.68117,0,1,1,45.64327,22.279,3.68117,3.68117,0,0,1,49.32444,18.59781Zm-9.50512-3.58238-3.13025.00083v7.28986a3.58186,3.58186,0,1,1-7.16336,0l-.00839-6.8382a.44488.44488,0,0,0-.44363-.45178L25.745,15.017v7.36151A7.27576,7.27576,0,0,0,33.093,29.54184a7.19185,7.19185,0,0,0,7.17775-7.23655V15.46766A.45183.45183,0,0,0,39.81931,15.01543Z"/><g class="b"><rect class="c" width="76.49879" height="44.03629"/></g></svg>